<?xml version="1.0" encoding="UTF-8" standalone="no"?>
<!-- Generator: Adobe Illustrator 25.0.0, SVG Export Plug-In . SVG Version: 6.00 Build 0)  -->

<svg
   version="1.1"
   id="katman_1"
   x="0px"
   y="0px"
   viewBox="0 0 1215 1215"
   xml:space="preserve"
   sodipodi:docname="amd-sev.svg"
   inkscape:version="1.3 (0e150ed6c4, 2023-07-21)"
   inkscape:export-filename="amd-sev.svg"
   inkscape:export-xdpi="96"
   inkscape:export-ydpi="96"
   xmlns:inkscape="http://www.inkscape.org/namespaces/inkscape"
   xmlns:sodipodi="http://sodipodi.sourceforge.net/DTD/sodipodi-0.dtd"
   xmlns="http://www.w3.org/2000/svg"
   xmlns:svg="http://www.w3.org/2000/svg"><defs
   id="defs1"><clipPath
     clipPathUnits="userSpaceOnUse"
     id="clipPath4"><rect
       style="fill:#000000;stroke:#a5acee;stroke-width:0;stroke-opacity:0.253212"
       id="rect5"
       width="177.77826"
       height="176.29677"
       x="2328.8953"
       y="70.37056" /></clipPath></defs><sodipodi:namedview
   id="namedview1"
   pagecolor="#ffffff"
   bordercolor="#000000"
   borderopacity="0.25"
   inkscape:showpageshadow="2"
   inkscape:pageopacity="0.0"
   inkscape:pagecheckerboard="0"
   inkscape:deskcolor="#d1d1d1"
   inkscape:zoom="0.80999779"
   inkscape:cx="541.97679"
   inkscape:cy="635.8042"
   inkscape:window-width="2560"
   inkscape:window-height="1416"
   inkscape:window-x="1920"
   inkscape:window-y="0"
   inkscape:window-maximized="1"
   inkscape:current-layer="g6"
   showgrid="false"><inkscape:grid
     id="grid6"
     units="px"
     originx="-138.27895"
     originy="-121.51811"
     spacingx="1"
     spacingy="1"
     empcolor="#0099e5"
     empopacity="0.30196078"
     color="#0099e5"
     opacity="0.14901961"
     empspacing="5"
     dotted="false"
     gridanglex="30"
     gridanglez="30"
     visible="false" /></sodipodi:namedview>&#10;&#10;<path
   d="M 1189.6871,810.00665 H 1037.8957 V 708.75612 h 101.1658 c 13.989,0 25.3127,-11.3197 25.3127,-25.31356 0,-13.98933 -11.3192,-25.31331 -25.3127,-25.31331 H 1037.8957 V 556.87872 h 101.1658 c 13.989,0 25.3127,-11.31978 25.3127,-25.3134 0,-13.98954 -11.3192,-25.31352 -25.3127,-25.31352 H 1037.8957 V 404.9974 h 151.7914 c 13.9891,0 25.3129,-11.31973 25.3129,-25.31335 0,-13.98957 -11.3195,-25.31356 -25.3129,-25.31356 H 1037.8957 V 202.60843 c 0,-14.178 -11.3928,-25.31336 -25.3128,-25.31336 H 860.62699 V 25.313364 C 860.62699,11.323988 849.30747,0 835.31401,0 821.32499,0 810.00122,11.319741 810.00122,25.313364 V 177.29507 H 708.75319 V 75.938065 c 0,-13.989387 -11.31924,-25.313355 -25.31272,-25.313355 -13.98902,0 -25.31293,11.319721 -25.31293,25.313355 V 177.29507 H 556.87981 V 75.938065 c 0,-13.989387 -11.31943,-25.313355 -25.31293,-25.313355 -13.98903,0 -25.3128,11.319721 -25.3128,25.313355 V 177.29507 H 404.99874 V 25.313364 C 404.99874,11.323988 393.6793,0 379.6858,0 365.69678,0 354.37301,11.319741 354.37301,25.313364 V 177.29507 H 202.5816 c -14.17332,0 -25.31271,11.13536 -25.31271,25.31336 V 354.37068 H 25.312774 C 11.323749,354.37068 0,365.69022 0,379.68405 0,393.6736 11.319246,404.9976 25.312774,404.9976 H 177.26873 V 506.24792 H 75.939591 c -13.989173,0 -25.312922,11.31954 -25.312922,25.31336 0,13.98941 11.319402,25.31339 25.312922,25.31339 H 177.26873 V 658.12495 H 75.939591 c -13.989173,0 -25.312922,11.31977 -25.312922,25.31356 0,13.9894 11.319402,25.3134 25.312922,25.3134 H 177.26873 V 810.00235 H 25.312774 C 11.323749,810.00235 0,821.32212 0,835.31591 c 0,13.98941 11.319246,25.31341 25.312774,25.31341 H 177.26873 v 151.98138 c 0,13.9205 11.13508,25.3137 25.31287,25.3137 h 151.79141 v 151.7622 c 0,13.9894 11.31937,25.3134 25.31279,25.3134 13.98918,0 25.31294,-11.3198 25.31294,-25.3134 v -151.7622 h 101.24801 v 101.1431 c 0,13.9891 11.31923,25.3133 25.31272,25.3133 13.98903,0 25.3128,-11.3196 25.3128,-25.3133 v -101.1431 h 101.24815 v 101.1431 c 0,13.9891 11.3193,25.3133 25.3128,25.3133 13.98902,0 25.31278,-11.3196 25.31278,-25.3133 v -101.1431 h 101.248 v 151.7622 c 0,13.9894 11.31934,25.3134 25.31271,25.3134 13.98911,0 25.31297,-11.3198 25.31297,-25.3134 v -151.7622 h 151.95602 c 13.9199,0 25.3127,-11.3932 25.3127,-25.3134 l -0.016,-151.98168 h 151.7913 c 13.9892,0 25.3129,-11.31955 25.3129,-25.31341 0,-13.98957 -11.3237,-25.30909 -25.3129,-25.30909 z m -222.63222,121.5456 c 0,13.92036 -11.39281,25.31338 -25.31264,25.31338 H 274.92967 c -14.17332,0 -25.31295,-11.39302 -25.31295,-25.31338 V 281.99533 c 0,-14.17819 11.13509,-25.31355 25.31295,-25.31355 h 666.81257 c 13.91983,0 25.31264,11.13536 25.31264,25.31355 z"
   id="path1-7"
   style="fill:#ffffff;stroke-width:1.09685"
   sodipodi:nodetypes="cccsssccsssccssscsscsssccsssccsssccssscsscsssccsssccsssccssscsscsssccsssccsssccssscsccssccsssssssss" /><g
   id="g6"
   transform="translate(-1003.4013,-465.57724)"
   style="fill:#ffffff"><path
     d="m 1527.7337,1151.1786 h -36.005 l -11.0146,-30.1878 h -60.0085 l -10.0274,30.1878 h -35.4076 l 54.0856,-152.41425 h 38.7587 z m -78.5046,-116.0001 -19.6651,59.2247 h 41.3045 z m 209.2763,-36.41415 h 29.1211 v 152.41425 h -33.4593 v -95.1962 l -36.1869,47.8047 h -5.1176 l -36.187,-47.8047 v 95.1962 h -33.4593 V 998.76435 h 29.121 l 43.071,56.53935 z m 113.8603,0 c 48.994,0 74.1663,34.64365 74.1663,76.42855 0,43.7914 -24.393,75.9857 -77.907,75.9857 h -55.4884 V 998.76435 Z m -25.7698,124.46915 h 21.8212 c 33.6412,0 43.6686,-25.9384 43.6686,-48.2768 0,-26.145 -12.3914,-48.2768 -44.0583,-48.2768 h -21.4315 z"
     id="path1-5"
     style="fill:#ffffff;stroke-width:0.276872"
     sodipodi:nodetypes="cccccccccccccccccccccccccccsssccscssscc" /><path
     d="m 1961.2143,230.70193 h -38.9066 l -11.9022,-28.71678 h -64.8444 l -10.8355,28.71678 h -38.261 l 58.4442,-144.987581 h 41.8822 z m -84.8311,-110.34774 -21.2499,56.33886 h 44.6332 z m 226.1414,-34.639841 h 31.4678 V 230.70193 h -36.1556 v -90.55756 l -39.1032,45.47528 h -5.53 l -39.1032,-45.47528 v 90.55756 h -36.1557 V 85.714349 h 31.4678 l 46.542,53.784381 z m 123.036,0 c 52.9423,0 80.1432,32.955571 80.1432,72.704401 0,41.6576 -26.3588,72.28318 -84.1854,72.28318 h -59.9601 V 85.714349 Z M 2197.714,204.11855 h 23.5798 c 36.3522,0 47.1877,-24.6745 47.1877,-45.9244 0,-24.87108 -13.39,-45.92446 -47.6088,-45.92446 h -23.1587 z m 179.8801,-84.04507 -45.5595,-45.559531 h 165.9007 V 240.41463 l -45.5595,-45.58758 v -74.75357 z m -0.056,9.1512 -46.9069,46.90697 v 65.68648 h 65.6585 l 46.9069,-46.90688 h -65.6585 z"
     id="path1-5-7"
     style="fill:#ffffff;stroke-width:0.280712"
     clip-path="url(#clipPath4)"
     transform="translate(-802.51399,703.96612)" /><path
     id="text1"
     style="font-weight:bold;font-size:229.638px;font-family:'Maven Pro';-inkscape-font-specification:'Maven Pro, Bold';fill:#ffffff;stroke:#a5acee;stroke-width:0;stroke-opacity:0.253212"
     d="m 1461.1767,1207.8468 c -13.0128,0 -23.9586,2.2185 -32.8379,6.6582 -8.8794,4.4396 -15.4615,10.4106 -19.748,17.9121 -4.2866,7.3484 -6.4297,15.387 -6.4297,24.1133 0,12.4004 3.1372,21.7389 9.414,28.0156 6.4299,6.2768 15.1571,11.2516 26.1797,14.9258 1.0717,0.4592 3.9807,1.4554 8.7266,2.9863 10.2571,3.368 17.6807,6.4299 22.2734,9.1855 4.5928,2.6026 6.8906,6.2757 6.8906,11.0215 0,10.8696 -7.1972,16.3047 -21.5879,16.3047 -8.42,0 -17.0679,-1.4545 -25.9472,-4.3633 -8.7263,-3.0618 -16.5347,-7.348 -23.4238,-12.8593 v 35.3632 c 7.3484,3.8273 15.3096,6.5062 23.8828,8.0372 8.5731,1.684 18.6775,2.5273 30.3125,2.5273 11.3288,0 21.1256,-2.1431 29.3925,-6.4297 8.4201,-4.4397 14.7741,-10.4106 19.0606,-17.9121 4.2866,-7.5015 6.4297,-15.9212 6.4297,-25.2598 0,-8.8793 -1.8375,-16.152 -5.5117,-21.8164 -3.6742,-5.6644 -8.5736,-10.1807 -14.6973,-13.5488 -6.1237,-3.368 -13.9302,-6.4299 -23.4219,-9.1855 -7.9608,-2.4495 -13.7789,-4.3625 -17.4531,-5.7403 -3.5211,-1.3778 -6.5056,-3.2927 -8.9551,-5.7422 -2.4494,-2.6025 -3.6758,-5.8926 -3.6758,-9.873 0,-5.0521 1.9903,-8.8799 5.9707,-11.4824 4.1335,-2.7557 9.5687,-4.1329 16.3047,-4.1329 7.5015,0 14.927,1.6074 22.2754,4.8223 7.3484,3.2149 14.2381,7.271 20.668,12.1699 v -35.5937 c -7.3484,-3.5211 -14.3155,-6.0472 -20.8985,-7.5781 -6.4298,-1.684 -14.1609,-2.5254 -23.1933,-2.5254 z m 78.7656,3.4433 v 153.17 h 104.9453 v -28.7051 h -67.7441 v -33.5274 h 58.789 v -28.9336 h -58.789 v -33.2988 h 67.7441 v -28.7051 z m 122.8574,0 57.1797,153.17 h 39.7266 l 59.9355,-153.17 -39.4961,0.2305 -37.2031,111.6035 -37.2012,-111.834 z" /></g></svg>
