<?xml version="1.0" encoding="UTF-8"?>
<svg version="1.1" viewBox="0 0 1200 1200" xmlns="http://www.w3.org/2000/svg">
 <g fill="#ffffffff" fill-rule="evenodd">
  <path d="m1129.7 922.32h-1059.4c-37.961 0-69.598-31.633-69.598-69.598v-715.64c0-37.961 31.633-68.895 69.598-68.895h1060.1c37.961 0 69.598 30.93 69.598 68.895v715.64c-1.4062 37.961-32.336 69.598-70.297 69.598zm-1059.4-819.68c-19.684 0-35.148 15.465-35.148 34.445v715.64c0 19.684 15.465 35.148 35.148 35.148h1060.1c19.684 0 35.148-15.465 35.148-35.148v-715.64c0-18.98-15.465-34.445-35.148-34.445z"/>
  <path d="m736.03 1131.8c-9.1406 0-15.465-6.3281-16.871-14.762l-28.824-209.49c-1.4062-9.8438 4.9219-17.574 14.059-19.684 9.8438-0.70312 17.574 4.9219 19.684 14.762l29.527 209.49c0.70313 9.8438-4.9219 17.574-14.762 19.684h-2.8125zm-272.76 0h-2.1094c-9.8438-1.4062-15.465-9.8438-14.762-19.684l29.527-209.49c0.70312-9.8438 9.1406-15.465 18.98-14.762 9.8438 0.70312 15.465 9.8438 14.762 19.684l-29.527 209.49c-0.70312 8.4375-8.4375 14.762-16.871 14.762z"/>
  <path d="m858.35 1131.8h-518.1c-9.8438 0-17.574-7.7344-17.574-17.574 0-9.8438 7.7344-17.574 17.574-17.574h518.1c9.8438 0 17.574 7.7344 17.574 17.574 0 9.8438-8.4375 17.574-17.574 17.574z"/>
  <path d="m1182.4 789.46h-1164.9c-9.8438 0-17.574-7.7344-17.574-17.574 0-9.8438 7.7344-17.574 17.574-17.574h1164.9c9.8438 0 17.574 7.7344 17.574 17.574 0 9.8438-9.1406 17.574-17.574 17.574z"/>
  <path d="m778.91 716.34h-260.11c-9.8438 0-17.574-7.7344-17.574-17.574 0-9.8438 7.7344-17.574 17.574-17.574h260.11c5.625 0 10.543-4.9219 10.543-10.543v-67.488c0-9.8438 7.7344-17.574 17.574-17.574 9.8438 0 17.574 7.7344 17.574 17.574v67.488c-0.70312 25.309-21.793 45.695-45.695 45.695zm-321.97 0h-35.852c-25.309 0-44.992-20.387-44.992-44.992v-272.76c0-25.309 20.387-44.992 44.992-44.992h356.41c25.309 0 44.992 20.387 44.992 44.992v136.38c0 9.8438-7.7344 17.574-17.574 17.574-9.8438 0-17.574-7.7344-17.574-17.574v-136.38c0-5.625-4.9219-10.543-10.543-10.543h-355.71c-5.625 0-10.543 4.9219-10.543 10.543v272.76c0 6.3281 4.9219 10.543 10.543 10.543h35.852c9.8438 0 17.574 8.4375 17.574 17.574 0 9.8438-7.7344 16.871-17.574 16.871z"/>
  <path d="m720.56 386.64c-9.8438 0-17.574-7.7344-17.574-17.574v-91.387c0-56.238-47.102-103.34-103.34-103.34-56.941 0-103.34 45.695-103.34 103.34v91.387c0 9.8438-7.7344 17.574-17.574 17.574-9.8438 0-17.574-7.7344-17.574-17.574v-91.387c0-75.922 61.16-137.08 137.08-137.08 75.922 0 137.79 61.16 137.79 137.08v91.387c0.70312 9.8438-6.3281 17.574-15.465 17.574z"/>
  <path d="m665.73 386.64c-9.8438 0-17.574-7.7344-17.574-17.574v-91.387c0-26.012-22.496-48.508-48.508-48.508-26.715 0-49.211 22.496-49.211 48.508v91.387c0 9.8438-7.7344 17.574-17.574 17.574-9.1406 0-17.574-7.7344-17.574-17.574v-91.387c0-44.992 37.961-82.953 82.953-82.953 45.695 0 82.953 37.258 82.953 82.953v91.387c0.70313 9.8438-7.0312 17.574-15.465 17.574z"/>
  <path d="m806.33 620.74c-3.5156 0-4.9219-0.70312-8.4375-2.1094l-63.27-30.227c-3.5156-1.4062-6.3281-4.9219-8.4375-8.4375l-15.465-37.961-65.379-14.762c-7.0312-2.1094-12.652-7.7344-12.652-15.465 0-7.7344 3.5156-14.762 10.543-17.574l78.734-33.039c6.3281-2.1094 11.949-2.1094 16.871 2.1094l78.734 56.238c7.7344 5.625 9.8438 16.871 4.2188 23.199-6.3281 7.7344-16.871 9.8438-23.902 4.2188l-71-52.02-21.09 9.1406 23.199 5.625c4.9219 0.70312 9.8438 4.9219 11.949 9.8438l16.168 40.07 57.645 27.418c9.1406 3.5156 11.949 14.059 7.7344 21.793-3.5156 8.4375-9.8438 11.949-16.168 11.949z"/>
  <path d="m518.8 716.34h-1.4062c-9.8438-0.70312-16.168-8.4375-15.465-18.277l4.9219-61.863-23.199-18.277c-6.3281-4.2188-7.7344-11.949-6.3281-18.277l9.8438-35.148-22.496 12.652 9.1406 119.51c0.70312 9.8438-7.0312 17.574-15.465 18.98-9.8438 0.70312-17.574-7.0312-18.98-16.168l-9.8438-131.46c-0.70312-6.3281 3.5156-12.652 9.1406-16.168l68.191-37.258c5.625-2.8125 13.355-2.8125 18.277 2.1094 6.3281 3.5156 7.7344 11.246 6.3281 18.277l-18.98 63.27 21.793 16.871c4.9219 3.5156 6.3281 8.4375 6.3281 14.762l-5.625 69.598c-0.70312 9.8438-7.7344 16.871-16.168 16.871z"/>
 </g>
</svg>
